<svg viewBox="0 0 24 24" xmlns="http://www.w3.org/2000/svg">
<path fill-rule="evenodd" clip-rule="evenodd" d="M19.75 12C19.75 11.5858 19.4142 11.25 19 11.25H5C4.58579 11.25 4.25 11.5858 4.25 12C4.25 12.4142 4.58579 12.75 5 12.75H19C19.4142 12.75 19.75 12.4142 19.75 12Z" />
<path fill-rule="evenodd" clip-rule="evenodd" d="M13.4697 6.46967C13.1768 6.76256 13.1768 7.23744 13.4697 7.53033L18.4697 12.5303C18.7626 12.8232 19.2374 12.8232 19.5303 12.5303C19.8232 12.2374 19.8232 11.7626 19.5303 11.4697L14.5303 6.46967C14.2374 6.17678 13.7626 6.17678 13.4697 6.46967Z" />
<path fill-rule="evenodd" clip-rule="evenodd" d="M19.5303 11.4697C19.2374 11.1768 18.7626 11.1768 18.4697 11.4697L13.4697 16.4697C13.1768 16.7626 13.1768 17.2374 13.4697 17.5303C13.7626 17.8232 14.2374 17.8232 14.5303 17.5303L19.5303 12.5303C19.8232 12.2374 19.8232 11.7626 19.5303 11.4697Z" />
</svg>
