<svg viewBox="0 0 32 32" xmlns="http://www.w3.org/2000/svg">
<path fill-rule="evenodd" clip-rule="evenodd" d="M11.0303 7.46967C10.7374 7.17678 10.2626 7.17678 9.96967 7.46967L5.96967 11.4697C5.67678 11.7626 5.67678 12.2374 5.96967 12.5303L9.96967 16.5303C10.2626 16.8232 10.7374 16.8232 11.0303 16.5303C11.3232 16.2374 11.3232 15.7626 11.0303 15.4697L7.56066 12L11.0303 8.53033C11.3232 8.23744 11.3232 7.76256 11.0303 7.46967Z" />
<path fill-rule="evenodd" clip-rule="evenodd" d="M18.0303 6.46967C17.7374 6.17678 17.2626 6.17678 16.9697 6.46967L11.9697 11.4697C11.6768 11.7626 11.6768 12.2374 11.9697 12.5303L16.9697 17.5303C17.2626 17.8232 17.7374 17.8232 18.0303 17.5303C18.3232 17.2374 18.3232 16.7626 18.0303 16.4697L13.5607 12L18.0303 7.53033C18.3232 7.23744 18.3232 6.76256 18.0303 6.46967Z" />
</svg>
