<svg viewBox="0 0 32 32" xmlns="http://www.w3.org/2000/svg">
<path fill-rule="evenodd" clip-rule="evenodd" d="M12.9697 7.46967C13.2626 7.17678 13.7374 7.17678 14.0303 7.46967L18.0303 11.4697C18.3232 11.7626 18.3232 12.2374 18.0303 12.5303L14.0303 16.5303C13.7374 16.8232 13.2626 16.8232 12.9697 16.5303C12.6768 16.2374 12.6768 15.7626 12.9697 15.4697L16.4393 12L12.9697 8.53033C12.6768 8.23744 12.6768 7.76256 12.9697 7.46967Z" />
<path fill-rule="evenodd" clip-rule="evenodd" d="M5.96967 6.46967C6.26256 6.17678 6.73744 6.17678 7.03033 6.46967L12.0303 11.4697C12.3232 11.7626 12.3232 12.2374 12.0303 12.5303L7.03033 17.5303C6.73744 17.8232 6.26256 17.8232 5.96967 17.5303C5.67678 17.2374 5.67678 16.7626 5.96967 16.4697L10.4393 12L5.96967 7.53033C5.67678 7.23744 5.67678 6.76256 5.96967 6.46967Z" />
</svg>
