<svg viewBox="0 0 32 32" xmlns="http://www.w3.org/2000/svg">
<path fill-rule="evenodd" clip-rule="evenodd" d="M12 4.25C11.5858 4.25 11.25 4.58579 11.25 5L11.25 19C11.25 19.4142 11.5858 19.75 12 19.75C12.4142 19.75 12.75 19.4142 12.75 19L12.75 5C12.75 4.58579 12.4142 4.25 12 4.25Z" />
<path fill-rule="evenodd" clip-rule="evenodd" d="M6.46967 10.5303C6.76256 10.8232 7.23744 10.8232 7.53033 10.5303L12.5303 5.53033C12.8232 5.23744 12.8232 4.76256 12.5303 4.46967C12.2374 4.17678 11.7626 4.17678 11.4697 4.46967L6.46967 9.46967C6.17678 9.76256 6.17678 10.2374 6.46967 10.5303Z" />
<path fill-rule="evenodd" clip-rule="evenodd" d="M11.4697 4.46967C11.1768 4.76256 11.1768 5.23744 11.4697 5.53033L16.4697 10.5303C16.7626 10.8232 17.2374 10.8232 17.5303 10.5303C17.8232 10.2374 17.8232 9.76256 17.5303 9.46967L12.5303 4.46967C12.2374 4.17678 11.7626 4.17678 11.4697 4.46967Z" />
</svg>
