<svg width="24" height="24" viewBox="0 0 24 24"  xmlns="http://www.w3.org/2000/svg">

<path fill-rule="evenodd" clip-rule="evenodd" d="M12 19.75C11.5858 19.75 11.25 19.4142 11.25 19L11.25 5C11.25 4.58579 11.5858 4.25 12 4.25C12.4142 4.25 12.75 4.58579 12.75 5L12.75 19C12.75 19.4142 12.4142 19.75 12 19.75Z" />
<path fill-rule="evenodd" clip-rule="evenodd" d="M6.46967 13.4697C6.76256 13.1768 7.23744 13.1768 7.53033 13.4697L12.5303 18.4697C12.8232 18.7626 12.8232 19.2374 12.5303 19.5303C12.2374 19.8232 11.7626 19.8232 11.4697 19.5303L6.46967 14.5303C6.17678 14.2374 6.17678 13.7626 6.46967 13.4697Z" />
<path fill-rule="evenodd" clip-rule="evenodd" d="M11.4697 19.5303C11.1768 19.2374 11.1768 18.7626 11.4697 18.4697L16.4697 13.4697C16.7626 13.1768 17.2374 13.1768 17.5303 13.4697C17.8232 13.7626 17.8232 14.2374 17.5303 14.5303L12.5303 19.5303C12.2374 19.8232 11.7626 19.8232 11.4697 19.5303Z" />
</svg>
