<svg width="21" height="20" viewBox="0 0 14 18" fill="none" xmlns="http://www.w3.org/2000/svg">
<path fill-rule="evenodd" clip-rule="evenodd" d="M4.53033 0.96967C4.82322 1.26256 4.82322 1.73744 4.53033 2.03033L1.53033 5.03033C1.23744 5.32322 0.762563 5.32322 0.46967 5.03033C0.176777 4.73744 0.176777 4.26256 0.46967 3.96967L3.46967 0.96967C3.76256 0.676777 4.23744 0.676777 4.53033 0.96967Z" fill="#4E586B"/>
<path fill-rule="evenodd" clip-rule="evenodd" d="M0.46967 3.96967C0.762563 3.67678 1.23744 3.67678 1.53033 3.96967L4.53033 6.96967C4.82322 7.26256 4.82322 7.73744 4.53033 8.03033C4.23744 8.32322 3.76256 8.32322 3.46967 8.03033L0.46967 5.03033C0.176777 4.73744 0.176777 4.26256 0.46967 3.96967Z" fill="#4E586B"/>
<path fill-rule="evenodd" clip-rule="evenodd" d="M0.25 4.5C0.25 4.08579 0.585786 3.75 1 3.75H7C10.7282 3.75 13.75 6.77179 13.75 10.5C13.75 14.2282 10.7282 17.25 7 17.25C3.27179 17.25 0.25 14.2282 0.25 10.5C0.25 10.0858 0.585786 9.75 1 9.75C1.41421 9.75 1.75 10.0858 1.75 10.5C1.75 13.3998 4.10021 15.75 7 15.75C9.89979 15.75 12.25 13.3998 12.25 10.5C12.25 7.60021 9.89979 5.25 7 5.25H1C0.585786 5.25 0.25 4.91421 0.25 4.5Z" fill="#4E586B"/>
</svg>