<svg viewBox="0 0 32 32" xmlns="http://www.w3.org/2000/svg">
<path fill-rule="evenodd" clip-rule="evenodd" d="M17.8337 6.16637C14.6119 2.94454 9.38826 2.94454 6.16643 6.16637L6.16643 6.16637C2.94461 9.38818 2.9446 14.6118 6.16643 17.8336C9.38824 21.0554 14.6118 21.0554 17.8337 17.8336C21.0554 14.6119 21.0555 9.38857 17.834 6.16671C17.8339 6.1666 17.8338 6.16648 17.8337 6.16637ZM18.8943 5.10571C22.7019 8.91332 22.7019 15.0867 18.8943 18.8943C15.0867 22.7019 8.91336 22.7019 5.10577 18.8943C1.29816 15.0867 1.29816 8.9133 5.10577 5.10571C8.91338 1.2981 15.0867 1.2981 18.8943 5.10571Z" />
<path fill-rule="evenodd" clip-rule="evenodd" d="M13.4588 8.85424C12.6531 8.04859 11.3469 8.04859 10.5412 8.85424C9.7356 9.65988 9.7356 10.9661 10.5412 11.7718C11.3469 12.5774 12.6531 12.5774 13.4588 11.7718C14.2644 10.9661 14.2644 9.65988 13.4588 8.85424ZM14.5194 7.79357C13.128 6.40214 10.872 6.40214 9.48059 7.79357C8.08915 9.18501 8.08915 11.441 9.48059 12.8324C10.872 14.2238 13.128 14.2238 14.5194 12.8324C15.9109 11.441 15.9109 9.18501 14.5194 7.79357Z" />
<path fill-rule="evenodd" clip-rule="evenodd" d="M5.749 18.4427C7.31863 16.7888 9.53636 15.75 12 15.75C14.4636 15.75 16.6813 16.7888 18.2508 18.4415C18.5361 18.7419 18.5238 19.2166 18.2235 19.5018C17.9231 19.7871 17.4484 19.7748 17.1632 19.4745C15.8627 18.1052 14.0324 17.25 12 17.25C9.96764 17.25 8.13737 18.1052 6.837 19.4753C6.55186 19.7757 6.07715 19.7881 5.7767 19.503C5.47626 19.2179 5.46386 18.7431 5.749 18.4427Z" />
</svg>
