<svg viewBox="0 0 24 24" xmlns="http://www.w3.org/2000/svg">
<path fill-rule="evenodd" clip-rule="evenodd" d="M18.5303 5.80035C18.8232 6.09324 18.7441 6.64726 18.3536 7.03779L7.03985 18.3515C6.64932 18.742 6.0953 18.8212 5.80241 18.5283C5.50952 18.2354 5.58866 17.6814 5.97918 17.2908L17.2929 5.97713C17.6834 5.5866 18.2374 5.50746 18.5303 5.80035Z" />
<path fill-rule="evenodd" clip-rule="evenodd" d="M5.46967 5.80035C5.76256 5.50746 6.31658 5.5866 6.70711 5.97713L18.0208 17.2908C18.4113 17.6814 18.4905 18.2354 18.1976 18.5283C17.9047 18.8212 17.3507 18.742 16.9602 18.3515L5.64645 7.03779C5.25592 6.64726 5.17678 6.09324 5.46967 5.80035Z" />
</svg>
