<svg viewBox="0 0 24 24" fill="none" xmlns="http://www.w3.org/2000/svg">
<path fill-rule="evenodd" clip-rule="evenodd" d="M12 3.75C7.39105 3.75 3.75 7.12496 3.75 11.182C3.75 13.5865 5.02085 15.7292 7.02215 17.0968C7.22668 17.2365 7.349 17.4683 7.349 17.716V19.805L9.91732 18.5338L10.25 19.206L10.3828 18.4678C10.9084 18.5624 11.4479 18.614 12 18.614C16.6089 18.614 20.25 15.239 20.25 11.182C20.25 7.12496 16.6089 3.75 12 3.75ZM10.3652 19.9858C10.8959 20.0688 11.4414 20.114 12 20.114C17.2951 20.114 21.75 16.203 21.75 11.182C21.75 6.16104 17.2951 2.25 12 2.25C6.70495 2.25 2.25 6.16104 2.25 11.182C2.25 14.0044 3.67518 16.4814 5.849 18.1019V21.013C5.849 21.2724 5.98303 21.5134 6.20341 21.6502C6.42378 21.787 6.69921 21.8002 6.93168 21.6852L10.3652 19.9858Z" fill="currentcolor"/>
</svg>
