<svg width="32" height="32" viewBox="0 0 32 32" fill="none" xmlns="http://www.w3.org/2000/svg">
<path fill-rule="evenodd" clip-rule="evenodd" d="M11.207 13.4982C11.207 12.2326 12.233 11.2065 13.4987 11.2065H21.8369C23.1025 11.2065 24.1286 12.2326 24.1286 13.4982V21.8364C24.1286 23.1021 23.1025 24.1281 21.8369 24.1281H13.4987C12.233 24.1281 11.207 23.1021 11.207 21.8364V13.4982ZM13.4987 12.4565C12.9234 12.4565 12.457 12.9229 12.457 13.4982V21.8364C12.457 22.4117 12.9234 22.8781 13.4987 22.8781H21.8369C22.4122 22.8781 22.8786 22.4117 22.8786 21.8364V13.4982C22.8786 12.9229 22.4122 12.4565 21.8369 12.4565H13.4987Z" fill="#263357"/>
<path fill-rule="evenodd" clip-rule="evenodd" d="M10.1644 9.12183C9.58875 9.12183 9.12207 9.58851 9.12207 10.1642V18.501C9.12207 19.0767 9.58875 19.5434 10.1644 19.5434H11.8318C12.177 19.5434 12.4568 19.8232 12.4568 20.1684C12.4568 20.5135 12.177 20.7934 11.8318 20.7934H10.1644C8.8984 20.7934 7.87207 19.767 7.87207 18.501V10.1642C7.87207 8.89815 8.8984 7.87183 10.1644 7.87183H18.5012C19.7673 7.87183 20.7936 8.89815 20.7936 10.1642V11.8315C20.7936 12.1767 20.5138 12.4565 20.1686 12.4565C19.8234 12.4565 19.5436 12.1767 19.5436 11.8315V10.1642C19.5436 9.58851 19.0769 9.12183 18.5012 9.12183H10.1644Z" fill="#263357"/>
</svg>
