<svg viewBox="0 0 24 24" fill="none" xmlns="http://www.w3.org/2000/svg">
<path fill-rule="evenodd" clip-rule="evenodd" d="M4.6969 5.86309C4.83885 5.70981 5.03829 5.62268 5.24719 5.62268H18.7528C18.9617 5.62268 19.1612 5.70981 19.3031 5.86309C19.4451 6.01637 19.5166 6.22191 19.5006 6.4302L18.535 18.983C18.4147 20.5465 17.111 21.7538 15.5429 21.7538H8.4571C6.889 21.7538 5.58528 20.5465 5.46501 18.983L4.4994 6.4302C4.48338 6.22191 4.55496 6.01637 4.6969 5.86309ZM15.5429 20.2538C16.3272 20.2538 16.9793 19.6499 17.0394 18.868L17.9429 7.12268H6.0571L6.96059 18.868C7.02074 19.6499 7.67281 20.2538 8.4571 20.2538H15.5429Z" fill="#263357"/>
<path fill-rule="evenodd" clip-rule="evenodd" d="M3.24667 6.37268C3.24667 5.95847 3.58246 5.62268 3.99667 5.62268H20.0033C20.4176 5.62268 20.7533 5.95847 20.7533 6.37268C20.7533 6.78689 20.4176 7.12268 20.0033 7.12268H3.99667C3.58246 7.12268 3.24667 6.78689 3.24667 6.37268Z" fill="#263357"/>
<path fill-rule="evenodd" clip-rule="evenodd" d="M9.18632 3.74628C9.08674 3.74628 8.99124 3.78584 8.92082 3.85625C8.85041 3.92666 8.81085 4.02217 8.81085 4.12175V5.62268H15.1891V4.12175C15.1891 3.91438 15.021 3.74628 14.8137 3.74628H9.18632ZM7.86016 2.79559C8.21188 2.44387 8.68892 2.24628 9.18632 2.24628H14.8137C15.8495 2.24628 16.6891 3.08595 16.6891 4.12175V6.37268C16.6891 6.7869 16.3533 7.12268 15.9391 7.12268H8.06085C7.64664 7.12268 7.31085 6.7869 7.31085 6.37268V4.12175C7.31085 3.62434 7.50845 3.14731 7.86016 2.79559Z" fill="#263357"/>
<path fill-rule="evenodd" clip-rule="evenodd" d="M9.24918 17.0021C9.24918 16.5879 9.58496 16.2521 9.99918 16.2521H14.0008C14.4151 16.2521 14.7508 16.5879 14.7508 17.0021C14.7508 17.4163 14.4151 17.7521 14.0008 17.7521H9.99918C9.58496 17.7521 9.24918 17.4163 9.24918 17.0021Z" fill="#263357"/>
</svg>
