<svg viewBox="0 0 32 32" xmlns="http://www.w3.org/2000/svg">
<path fill-rule="evenodd" clip-rule="evenodd" d="M3.25 6C3.25 3.92893 4.92893 2.25 7 2.25H14.6283C15.6229 2.25 16.5767 2.64509 17.28 3.34835L19.6516 5.72002C20.3549 6.42328 20.75 7.37711 20.75 8.37167L20.75 18C20.75 20.0711 19.0711 21.75 17 21.75H7C4.92893 21.75 3.25 20.0711 3.25 18V6ZM7 3.75C5.75736 3.75 4.75 4.75736 4.75 6V18C4.75 19.2426 5.75736 20.25 7 20.25H17C18.2426 20.25 19.25 19.2426 19.25 18V8.37167C19.25 7.77493 19.0129 7.20264 18.591 6.78068L16.2193 4.40901C15.7974 3.98705 15.2251 3.75 14.6283 3.75H7Z" />
<path fill-rule="evenodd" clip-rule="evenodd" d="M7.25 17C7.25 16.5858 7.58579 16.25 8 16.25H16C16.4142 16.25 16.75 16.5858 16.75 17C16.75 17.4142 16.4142 17.75 16 17.75H8C7.58579 17.75 7.25 17.4142 7.25 17Z" />
<path fill-rule="evenodd" clip-rule="evenodd" d="M7.25 13.5C7.25 13.0858 7.58579 12.75 8 12.75H16C16.4142 12.75 16.75 13.0858 16.75 13.5C16.75 13.9142 16.4142 14.25 16 14.25H8C7.58579 14.25 7.25 13.9142 7.25 13.5Z" />
<path fill-rule="evenodd" clip-rule="evenodd" d="M7.25 10C7.25 9.58579 7.58579 9.25 8 9.25H11C11.4142 9.25 11.75 9.58579 11.75 10C11.75 10.4142 11.4142 10.75 11 10.75H8C7.58579 10.75 7.25 10.4142 7.25 10Z" />
<path fill-rule="evenodd" clip-rule="evenodd" d="M14.5 2.25C14.9142 2.25 15.25 2.58579 15.25 3V6.5C15.25 7.19036 15.8096 7.75 16.5 7.75H20C20.4142 7.75 20.75 8.08579 20.75 8.5C20.75 8.91421 20.4142 9.25 20 9.25H16.5C14.9812 9.25 13.75 8.01878 13.75 6.5V3C13.75 2.58579 14.0858 2.25 14.5 2.25Z" />
</svg>
