<svg viewBox="0 0 32 32" xmlns="http://www.w3.org/2000/svg">
<path fill-rule="evenodd" clip-rule="evenodd" d="M5.013 4.75C4.32052 4.75 3.75 5.31689 3.75 6.028V18.972C3.75 19.6831 4.32052 20.25 5.013 20.25H18.987C19.6795 20.25 20.25 19.6831 20.25 18.972V13.067C20.25 12.6528 20.5858 12.317 21 12.317C21.4142 12.317 21.75 12.6528 21.75 13.067V18.972C21.75 20.5009 20.5185 21.75 18.987 21.75H5.013C3.48148 21.75 2.25 20.5009 2.25 18.972V6.028C2.25 4.49911 3.48148 3.25 5.013 3.25H12C12.4142 3.25 12.75 3.58579 12.75 4C12.75 4.41421 12.4142 4.75 12 4.75H5.013Z" />
<path fill-rule="evenodd" clip-rule="evenodd" d="M16.8837 4.05566C17.9576 2.98177 19.6984 2.98177 20.7723 4.05566L20.9443 4.22766C22.0182 5.30156 22.0182 7.04243 20.9443 8.11632L12.5543 16.5063L12.5523 16.5084C12.329 16.7299 12.0499 16.8893 11.7409 16.9666C11.7409 16.9666 11.741 16.9666 11.7409 16.9666L8.02375 17.8961C7.96069 17.9132 7.89492 17.9222 7.82796 17.9222C7.62671 17.9223 7.43628 17.8409 7.29753 17.7023C7.15907 17.5636 7.07767 17.3732 7.07782 17.172C7.07777 17.1051 7.08675 17.0393 7.10385 16.9762L8.03339 13.2591C8.03339 13.2591 8.03339 13.2591 8.03339 13.2591C8.11023 12.9518 8.26917 12.6702 8.49367 12.4457L16.8837 4.05566ZM8.85888 16.1411L11.377 15.5114C11.4197 15.5007 11.4604 15.4784 11.495 15.4443C11.4948 15.4445 11.4953 15.4441 11.495 15.4443L19.8837 7.05566C20.3718 6.56756 20.3718 5.77643 19.8837 5.28832L19.7117 5.11632C19.2236 4.62822 18.4324 4.62822 17.9443 5.11632L9.55433 13.5063C9.52283 13.5378 9.49977 13.5782 9.4886 13.6229L8.85888 16.1411Z" />
<path fill-rule="evenodd" clip-rule="evenodd" d="M15.2997 5.63965C15.5926 5.34676 16.0674 5.34676 16.3603 5.63965L19.3603 8.63965C19.6532 8.93255 19.6532 9.40742 19.3603 9.70031C19.0674 9.99321 18.5926 9.99321 18.2997 9.70031L15.2997 6.70031C15.0068 6.40742 15.0068 5.93255 15.2997 5.63965Z" />
<path fill-rule="evenodd" clip-rule="evenodd" d="M8.70082 12.7038C8.7779 12.693 8.9347 12.671 9.078 12.671C10.8732 12.671 12.328 14.1258 12.328 15.921C12.328 16.0699 12.3065 16.2209 12.2946 16.304C12.2926 16.3182 12.2909 16.3304 12.2895 16.3402C12.2353 16.7509 11.8584 17.0398 11.4478 16.9856C11.0372 16.9313 10.7482 16.5545 10.8025 16.1438C10.8071 16.1086 10.811 16.0801 10.8142 16.0564C10.8243 15.9829 10.828 15.9557 10.828 15.921C10.828 14.9542 10.0448 14.171 9.078 14.171C9.04722 14.171 9.02798 14.1737 8.97795 14.1805C8.9484 14.1846 8.90809 14.1901 8.8483 14.1974C8.43717 14.2479 8.063 13.9555 8.01258 13.5443C7.96216 13.1332 8.25457 12.759 8.66571 12.7086C8.67398 12.7076 8.6859 12.7059 8.70082 12.7038Z" />
</svg>
