<svg viewBox="0 0 24 24" xmlns="http://www.w3.org/2000/svg">
<path fill-rule="evenodd" clip-rule="evenodd" d="M16.5017 5.82332C16.4046 5.72621 16.2464 5.72621 16.1493 5.82332L5.82333 16.1493L5.82191 16.1507C5.77621 16.1962 5.75 16.2585 5.75 16.325V18.25H7.675C7.7415 18.25 7.8038 18.2238 7.84926 18.1781L7.85072 18.1766L18.1777 7.85166C18.1777 7.85164 18.1777 7.85162 18.1777 7.85161C18.2748 7.7545 18.2748 7.59641 18.1777 7.49932L16.5017 5.82332ZM15.0887 4.76266C15.7716 4.07976 16.8794 4.07976 17.5623 4.76266L19.2383 6.43866C19.9212 7.12155 19.9212 8.22943 19.2383 8.91232L19.2383 8.91237L8.91274 19.2359C8.91252 19.2361 8.91229 19.2364 8.91206 19.2366C8.58359 19.5665 8.13818 19.75 7.675 19.75H5C4.58579 19.75 4.25 19.4142 4.25 19V16.325C4.25 15.8619 4.4335 15.4165 4.7633 15.088C4.76357 15.0878 4.76383 15.0875 4.76409 15.0872L15.0887 4.76266Z" />
<path fill-rule="evenodd" clip-rule="evenodd" d="M13.2197 6.62964C13.5126 6.33675 13.9874 6.33675 14.2803 6.62964L17.3703 9.71964C17.6632 10.0125 17.6632 10.4874 17.3703 10.7803C17.0774 11.0732 16.6026 11.0732 16.3097 10.7803L13.2197 7.6903C12.9268 7.39741 12.9268 6.92254 13.2197 6.62964Z" />
</svg>
