<svg viewBox="0 0 32 32" xmlns="http://www.w3.org/2000/svg">
<path fill-rule="evenodd" clip-rule="evenodd" d="M3.21973 5.00021C3.21973 4.01743 4.01694 3.22021 4.99973 3.22021H18.9997C19.9825 3.22021 20.7797 4.01743 20.7797 5.00021V7.58621C20.7797 8.05802 20.5926 8.51044 20.2583 8.84476L15.0513 14.0518C14.7467 14.3564 14.2528 14.3564 13.9482 14.0518C13.6436 13.7471 13.6436 13.2533 13.9482 12.9487L19.1552 7.74167C19.1969 7.69999 19.2197 7.6444 19.2197 7.58621V5.00021C19.2197 4.879 19.1209 4.78021 18.9997 4.78021H4.99973C4.87851 4.78021 4.77973 4.879 4.77973 5.00021V7.58621C4.77973 7.6456 4.80337 7.70099 4.8428 7.7402L4.84427 7.74167L4.84427 7.74167L10.0513 12.9487C10.3559 13.2533 10.3559 13.7471 10.0513 14.0518C9.74666 14.3564 9.25279 14.3564 8.94818 14.0518L3.74266 8.84623C3.74238 8.84595 3.7421 8.84568 3.74183 8.8454C3.40577 8.51069 3.21973 8.05644 3.21973 7.58621V5.00021Z" />
<path fill-rule="evenodd" clip-rule="evenodd" d="M9.49973 12.7202C9.93051 12.7202 10.2797 13.0694 10.2797 13.5002V19.7492C10.2797 20.055 10.567 20.2794 10.8635 20.2055C10.8635 20.2055 10.8636 20.2055 10.8635 20.2055L13.3635 19.5805C13.5726 19.5283 13.7197 19.34 13.7197 19.1242V13.5002C13.7197 13.0694 14.0689 12.7202 14.4997 12.7202C14.9305 12.7202 15.2797 13.0694 15.2797 13.5002V19.1242C15.2797 20.0564 14.6449 20.8682 13.7419 21.0939L11.2419 21.7189C9.9605 22.0389 8.71973 21.0694 8.71973 19.7492V13.5002C8.71973 13.0694 9.06894 12.7202 9.49973 12.7202Z" />
</svg>
