<svg viewBox="0 0 24 24" fill="none" xmlns="http://www.w3.org/2000/svg">
<path fill-rule="evenodd" clip-rule="evenodd" d="M2.24625 5.99625C2.24625 3.92518 3.92518 2.24625 5.99625 2.24625H18.0037C20.0748 2.24625 21.7537 3.92518 21.7537 5.99625V18.0037C21.7537 20.0748 20.0748 21.7537 18.0037 21.7537H5.99625C3.92518 21.7537 2.24625 20.0748 2.24625 18.0037V5.99625ZM5.99625 3.74625C4.75361 3.74625 3.74625 4.7536 3.74625 5.99625V18.0037C3.74625 19.2464 4.7536 20.2537 5.99625 20.2537H18.0037C19.2464 20.2537 20.2537 19.2464 20.2537 18.0037V5.99625C20.2537 4.75361 19.2464 3.74625 18.0037 3.74625H5.99625Z" fill="currentColor"/>
<path fill-rule="evenodd" clip-rule="evenodd" d="M6.30893 13.0004C6.30893 12.5862 6.64472 12.2504 7.05893 12.2504H7.99832C8.41253 12.2504 8.74832 12.5862 8.74832 13.0004C8.74832 13.4146 8.41253 13.7504 7.99832 13.7504H7.05893C6.64472 13.7504 6.30893 13.4146 6.30893 13.0004Z" fill="currentColor"/>
<path fill-rule="evenodd" clip-rule="evenodd" d="M10.2496 13.0004C10.2496 12.5862 10.5854 12.2504 10.9996 12.2504H17.0021C17.4163 12.2504 17.7521 12.5862 17.7521 13.0004C17.7521 13.4146 17.4163 13.7504 17.0021 13.7504H10.9996C10.5854 13.7504 10.2496 13.4146 10.2496 13.0004Z" fill="currentColor"/>
<path fill-rule="evenodd" clip-rule="evenodd" d="M6.24792 17.0021C6.24792 16.5879 6.58371 16.2521 6.99792 16.2521H7.99834C8.41255 16.2521 8.74834 16.5879 8.74834 17.0021C8.74834 17.4163 8.41255 17.7521 7.99834 17.7521H6.99792C6.58371 17.7521 6.24792 17.4163 6.24792 17.0021Z" fill="currentColor"/>
<path fill-rule="evenodd" clip-rule="evenodd" d="M10.2496 17.0021C10.2496 16.5879 10.5854 16.2521 10.9996 16.2521H17.0021C17.4163 16.2521 17.7521 16.5879 17.7521 17.0021C17.7521 17.4163 17.4163 17.7521 17.0021 17.7521H10.9996C10.5854 17.7521 10.2496 17.4163 10.2496 17.0021Z" fill="currentColor"/>
<path fill-rule="evenodd" clip-rule="evenodd" d="M2.24625 8.52255C2.24625 8.10834 2.58203 7.77255 2.99625 7.77255H21.0037C21.418 7.77255 21.7537 8.10834 21.7537 8.52255C21.7537 8.93677 21.418 9.27255 21.0037 9.27255H2.99625C2.58203 9.27255 2.24625 8.93677 2.24625 8.52255Z" fill="currentColor"/>
</svg>
