<svg viewBox="0 0 32 32" xmlns="http://www.w3.org/2000/svg">
<path fill-rule="evenodd" clip-rule="evenodd" d="M5.33331 18.2333C5.09437 18.2333 4.89998 18.4277 4.89998 18.6667V26.6667C4.89998 26.9056 5.09437 27.1 5.33331 27.1H7.99998C8.23892 27.1 8.43331 26.9056 8.43331 26.6667V18.6667C8.43331 18.4277 8.23892 18.2333 7.99998 18.2333H5.33331ZM3.09998 18.6667C3.09998 17.4336 4.10025 16.4333 5.33331 16.4333H7.99998C9.23303 16.4333 10.2333 17.4336 10.2333 18.6667V26.6667C10.2333 27.8997 9.23303 28.9 7.99998 28.9H5.33331C4.10025 28.9 3.09998 27.8997 3.09998 26.6667V18.6667Z" />
<path fill-rule="evenodd" clip-rule="evenodd" d="M27.2689 20.5417C26.8749 20.1477 26.2508 20.1034 25.8051 20.4375L22.5846 22.8528C21.9667 23.3171 21.2155 23.5667 20.444 23.5667H17.3333C16.8362 23.5667 16.4333 23.1637 16.4333 22.6667C16.4333 22.1696 16.8362 21.7667 17.3333 21.7667H20.444C20.8271 21.7667 21.1985 21.6429 21.5033 21.4138L24.7253 18.9973C25.8876 18.1261 27.5144 18.2416 28.5417 19.2689C29.6822 20.4094 29.683 22.2584 28.5411 23.3983L25.7777 26.1617C24.908 27.0314 23.7987 27.625 22.5927 27.8665L18.6858 28.6479C17.7809 28.8285 16.8471 28.8069 15.9506 28.5824L12.4178 27.6998L12.4157 27.6993C12.0657 27.611 11.7064 27.5667 11.344 27.5667H9.33329C8.83623 27.5667 8.43329 27.1637 8.43329 26.6667C8.43329 26.1696 8.83623 25.7667 9.33329 25.7667H11.344C11.8531 25.7667 12.36 25.8289 12.855 25.9537C12.8554 25.9538 12.8558 25.9539 12.8562 25.954L16.3874 26.8362C17.0243 26.9957 17.6885 27.0114 18.3328 26.8828M18.3328 26.8828L22.2392 26.1015C22.2392 26.1015 22.2393 26.1015 22.2392 26.1015C23.0971 25.9297 23.8866 25.5072 24.5049 24.8889L27.2689 22.1249C27.7057 21.6888 27.7071 20.9799 27.2689 20.5417" />
<path fill-rule="evenodd" clip-rule="evenodd" d="M11.2564 17.6367C12.4329 16.851 13.8162 16.4333 15.2293 16.4333C15.8149 16.4333 16.3974 16.505 16.9657 16.6467L20.0217 17.4107C20.0215 17.4107 20.0219 17.4108 20.0217 17.4107C21.3215 17.735 22.2333 18.9036 22.2333 20.2427V20.6467C22.2333 22.2597 20.9264 23.5667 19.3133 23.5667H17.3333C16.8363 23.5667 16.4333 23.1637 16.4333 22.6667C16.4333 22.1696 16.8363 21.7667 17.3333 21.7667H19.3133C19.9323 21.7667 20.4333 21.2656 20.4333 20.6467V20.2427C20.4333 19.7286 20.0835 19.2812 19.5863 19.1573L16.5303 18.3933C16.1041 18.2871 15.6675 18.2333 15.2293 18.2333C14.1706 18.2333 13.1353 18.5463 12.2559 19.1337L9.83246 20.7489C9.41885 21.0246 8.86008 20.9127 8.58441 20.4991C8.30875 20.0855 8.42058 19.5268 8.83419 19.2511L11.2564 17.6367C11.2566 17.6366 11.2563 17.6368 11.2564 17.6367Z" />
<path fill-rule="evenodd" clip-rule="evenodd" d="M22.2553 7.51003C21.129 6.38376 19.303 6.38376 18.1767 7.51003C17.0504 8.63631 17.0504 10.4624 18.1767 11.5886C19.303 12.7149 21.129 12.7149 22.2553 11.5886C23.3816 10.4624 23.3816 8.63631 22.2553 7.51003ZM23.5281 6.23724C21.6989 4.40802 18.7331 4.40802 16.9039 6.23724C15.0747 8.06646 15.0747 11.0322 16.9039 12.8614C18.7331 14.6906 21.6989 14.6906 23.5281 12.8614C25.3573 11.0322 25.3573 8.06646 23.5281 6.23724Z" />
<path fill-rule="evenodd" clip-rule="evenodd" d="M12.4716 3.13827C14.3004 1.30946 17.2662 1.30946 19.095 3.13827C19.8183 3.86149 20.2435 4.76081 20.396 5.68715C20.4768 6.17761 20.1446 6.64065 19.6542 6.72138C19.1637 6.80211 18.7007 6.46996 18.6199 5.9795C18.5244 5.39918 18.2617 4.8505 17.8222 4.41106C16.6964 3.2852 14.8702 3.2852 13.7444 4.41106C12.6185 5.53692 12.6185 7.36307 13.7444 8.48893C14.4445 9.18902 15.4142 9.45346 16.3229 9.28109C16.8113 9.18847 17.2822 9.50926 17.3749 9.99761C17.4675 10.486 17.1467 10.9569 16.6584 11.0496C15.1911 11.3279 13.6115 10.9016 12.4716 9.76172C10.6428 7.93292 10.6428 4.96707 12.4716 3.13827Z" />
</svg>
