<svg viewBox="0 0 24 24" fill="none" xmlns="http://www.w3.org/2000/svg">
<path fill-rule="evenodd" clip-rule="evenodd" d="M4.24708 4.99707C4.24708 4.58286 4.58287 4.24707 4.99708 4.24707H12C12.4142 4.24707 12.75 4.58286 12.75 4.99707C12.75 5.41128 12.4142 5.74707 12 5.74707H4.99708C4.58287 5.74707 4.24708 5.41128 4.24708 4.99707Z" fill="currentColor"/>
<path fill-rule="evenodd" clip-rule="evenodd" d="M11.25 4.99707C11.25 4.58286 11.5858 4.24707 12 4.24707C16.8343 4.24707 20.7533 8.16607 20.7533 13.0004C20.7533 17.8347 16.8343 21.7537 12 21.7537C7.16567 21.7537 3.24667 17.8347 3.24667 13.0004C3.24667 12.5862 3.58245 12.2504 3.99667 12.2504C4.41088 12.2504 4.74667 12.5862 4.74667 13.0004C4.74667 17.0063 7.99409 20.2537 12 20.2537C16.0059 20.2537 19.2533 17.0063 19.2533 13.0004C19.2533 8.9945 16.0059 5.74707 12 5.74707C11.5858 5.74707 11.25 5.41128 11.25 4.99707Z" fill="currentColor"/>
<path fill-rule="evenodd" clip-rule="evenodd" d="M8.52866 1.46552C8.82156 1.75841 8.82156 2.23329 8.52866 2.52618L5.52741 5.52743C5.23452 5.82032 4.75965 5.82032 4.46675 5.52743C4.17386 5.23454 4.17386 4.75966 4.46675 4.46677L7.468 1.46552C7.7609 1.17263 8.23577 1.17263 8.52866 1.46552Z" fill="currentColor"/>
<path fill-rule="evenodd" clip-rule="evenodd" d="M4.46675 4.46674C4.75965 4.17385 5.23452 4.17385 5.52741 4.46674L8.52866 7.46799C8.82156 7.76088 8.82156 8.23576 8.52866 8.52865C8.23577 8.82154 7.7609 8.82154 7.468 8.52865L4.46675 5.5274C4.17386 5.23451 4.17386 4.75963 4.46675 4.46674Z" fill="currentColor"/>
<path fill-rule="evenodd" clip-rule="evenodd" d="M11.1917 9.08313C11.6059 9.08313 11.9417 9.41892 11.9417 9.83313V13.0008H15.0012C15.4155 13.0008 15.7512 13.3365 15.7512 13.7508C15.7512 14.165 15.4155 14.5008 15.0012 14.5008H11.1917C10.7774 14.5008 10.4417 14.165 10.4417 13.7508V9.83313C10.4417 9.41892 10.7774 9.08313 11.1917 9.08313Z" fill="currentColor"/>
</svg>
