<svg width="17" height="16" viewBox="0 0 17 16" fill="none" xmlns="http://www.w3.org/2000/svg">
<g opacity="0.8">
<path fill-rule="evenodd" clip-rule="evenodd" d="M8.22852 14V14C4.91452 14 2.22852 11.314 2.22852 8V8C2.22852 4.686 4.91452 2 8.22852 2V2C11.5425 2 14.2285 4.686 14.2285 8V8C14.2285 11.314 11.5425 14 8.22852 14Z" stroke="#5B657B" stroke-linecap="round" stroke-linejoin="round"/>
<path d="M8.22843 11.3333V8H7.56177" stroke="#5B657B" stroke-linecap="round" stroke-linejoin="round"/>
<path d="M8.06118 5.33329C7.96918 5.33329 7.89452 5.40796 7.89518 5.49996C7.89518 5.59196 7.96985 5.66663 8.06185 5.66663C8.15385 5.66663 8.22852 5.59196 8.22852 5.49996C8.22852 5.40796 8.15385 5.33329 8.06118 5.33329" stroke="#5B657B" stroke-linecap="round" stroke-linejoin="round"/>
</g>
</svg>