<svg viewBox="0 0 32 32" xmlns="http://www.w3.org/2000/svg">
<path fill-rule="evenodd" clip-rule="evenodd" d="M16.0013 9.76445C16.4984 9.76445 16.9013 10.1674 16.9013 10.6645V11.9983C16.9013 12.4954 16.4984 12.8983 16.0013 12.8983C15.5043 12.8983 15.1013 12.4954 15.1013 11.9983V10.6645C15.1013 10.1674 15.5043 9.76445 16.0013 9.76445Z" />
<path fill-rule="evenodd" clip-rule="evenodd" d="M16.0013 19.1017C16.4984 19.1017 16.9013 19.5046 16.9013 20.0017V21.3356C16.9013 21.8326 16.4984 22.2356 16.0013 22.2356C15.5043 22.2356 15.1013 21.8326 15.1013 21.3356V20.0017C15.1013 19.5046 15.5043 19.1017 16.0013 19.1017Z" />
<path fill-rule="evenodd" clip-rule="evenodd" d="M15.2055 11.0968L16.6737 11.0968C17.6699 11.1037 18.5887 11.6354 19.0911 12.4958C19.3417 12.925 19.1969 13.4762 18.7677 13.7268C18.3384 13.9774 17.7873 13.8326 17.5367 13.4034C17.3552 13.0926 17.0236 12.9002 16.6638 12.8968H15.2059C14.7147 12.8974 14.3008 13.2638 14.2408 13.7514C14.1808 14.239 14.4936 14.695 14.9702 14.8145L17.4703 15.4426C18.8281 15.7832 19.7193 17.0822 19.5482 18.4716C19.3772 19.861 18.1976 20.9051 16.7978 20.9062H15.3274C14.3298 20.8977 13.4107 20.3637 12.9092 19.5014C12.6593 19.0717 12.805 18.5208 13.2347 18.2709C13.6644 18.021 14.2153 18.1667 14.4652 18.5964C14.6466 18.9085 14.9788 19.102 15.3395 19.1062L16.7963 19.1062C16.7962 19.1062 16.7965 19.1062 16.7963 19.1062C17.2875 19.1056 17.7017 18.7392 17.7617 18.2517C17.8217 17.764 17.5089 17.3081 17.0324 17.1885L14.5323 16.5605C14.5322 16.5604 14.5324 16.5605 14.5323 16.5605C13.1746 16.2198 12.2833 14.9208 12.4543 13.5315C12.6253 12.1421 13.8056 11.0979 15.2055 11.0968Z" />
<path fill-rule="evenodd" clip-rule="evenodd" d="M16 4.895C9.86685 4.895 4.89497 9.86688 4.89497 16C4.89497 22.1331 9.86685 27.105 16 27.105C22.1331 27.105 27.105 22.1331 27.105 16C27.105 9.86688 22.1331 4.895 16 4.895ZM16 3.095C8.87274 3.095 3.09497 8.87277 3.09497 16C3.09497 23.1272 8.87274 28.905 16 28.905C23.1272 28.905 28.905 23.1272 28.905 16C28.905 8.87277 23.1272 3.095 16 3.095Z" />
<path fill-rule="evenodd" clip-rule="evenodd" d="M16 4.895C9.86685 4.895 4.89497 9.86688 4.89497 16C4.89497 22.1331 9.86685 27.105 16 27.105C22.1331 27.105 27.105 22.1331 27.105 16C27.105 9.86688 22.1331 4.895 16 4.895ZM16 3.095C8.87274 3.095 3.09497 8.87277 3.09497 16C3.09497 23.1272 8.87274 28.905 16 28.905C23.1272 28.905 28.905 23.1272 28.905 16C28.905 8.87277 23.1272 3.095 16 3.095Z" />
</svg>
