<svg viewBox="0 0 32 32" xmlns="http://www.w3.org/2000/svg">
<path fill-rule="evenodd" clip-rule="evenodd" d="M11.9995 2.74633C13.6702 2.74464 15.2731 3.40703 16.4552 4.58767C17.6375 5.76841 18.3019 7.37064 18.3022 9.04151V12.4757L19.3406 13.515C19.341 13.5153 19.3413 13.5156 19.3416 13.5159C19.8601 14.0322 20.1521 14.7336 20.153 15.4654L20.153 15.4687C20.1483 16.9294 18.9629 18.1111 17.5022 18.1111L6.5056 18.1081C6.50553 18.1081 6.50567 18.1081 6.5056 18.1081C5.04497 18.108 3.85942 16.9263 3.85481 15.4657L3.8548 15.4619C3.85623 14.7301 4.14852 14.0289 4.66725 13.5129C4.66763 13.5125 4.66801 13.5121 4.66839 13.5117L5.70657 12.4727V9.04165C5.7072 5.5662 8.52408 2.74844 11.9995 2.74633C11.9996 2.74633 11.9994 2.74633 11.9995 2.74633ZM15.3952 5.649C14.4947 4.74956 13.2735 4.24496 12.0007 4.24633C9.35316 4.24777 7.20713 6.39413 7.20657 9.04165C7.20657 9.0416 7.20657 9.04169 7.20657 9.04165V12.7832C7.20657 12.982 7.12764 13.1727 6.98712 13.3133L5.72759 14.5738L5.72571 14.5757C5.48936 14.8106 5.35597 15.1297 5.35481 15.4629C5.35783 16.0961 5.87208 16.6081 6.50559 16.6081L17.5022 16.6111C17.5021 16.6111 17.5022 16.6111 17.5022 16.6111C18.1357 16.611 18.6501 16.0989 18.653 15.4656C18.6521 15.1325 18.519 14.8134 18.2828 14.5785L18.2812 14.5769L17.0217 13.3163C16.8811 13.1757 16.8022 12.985 16.8022 12.7862V9.04178C16.8022 9.04174 16.8022 9.04183 16.8022 9.04178C16.8019 7.76902 16.2958 6.54841 15.3952 5.649ZM9.77027 20.5034C9.77027 20.0892 10.1061 19.7534 10.5203 19.7534H13.4785C13.8927 19.7534 14.2285 20.0892 14.2285 20.5034C14.2285 20.9176 13.8927 21.2534 13.4785 21.2534H10.5203C10.1061 21.2534 9.77027 20.9176 9.77027 20.5034Z" />
</svg>
