<svg viewBox="0 0 28 28" fill="none" xmlns="http://www.w3.org/2000/svg">
<rect x="0.5" y="0.5" width="28" height="28" rx="7.5" fill="white"/>
<rect x="0.5" y="0.5" width="28" height="28" rx="7.5" stroke="#DCE1ED"/>
<path d="M11.8048 11.1381C12.0651 10.8777 12.0651 10.4556 11.8048 10.1953C11.5444 9.93491 11.1223 9.93491 10.862 10.1953L7.52864 13.5286C7.26829 13.7889 7.26829 14.2111 7.52864 14.4714L10.862 17.8047C11.1223 18.0651 11.5444 18.0651 11.8048 17.8047C12.0651 17.5444 12.0651 17.1223 11.8048 16.8619L8.94285 14L11.8048 11.1381Z" fill="#1C212A"/>
<path d="M17.1381 10.1953C16.8778 9.93491 16.4557 9.93491 16.1953 10.1953C15.935 10.4556 15.935 10.8777 16.1953 11.1381L19.0572 14L16.1953 16.8619C15.935 17.1223 15.935 17.5444 16.1953 17.8047C16.4557 18.0651 16.8778 18.0651 17.1381 17.8047L20.4714 14.4714C20.7318 14.2111 20.7318 13.7889 20.4714 13.5286L17.1381 10.1953Z" fill="#1C212A"/>
</svg>