<svg width="32px" height="32px" xmlns="http://www.w3.org/2000/svg">
<path fill-rule="evenodd" clip-rule="evenodd" d="M11.0586 4.74667C7.57263 4.74667 4.74667 7.57263 4.74667 11.0586C4.74667 14.5446 7.57263 17.3706 11.0586 17.3706C14.5446 17.3706 17.3706 14.5446 17.3706 11.0586C17.3706 7.57263 14.5446 4.74667 11.0586 4.74667ZM3.24667 11.0586C3.24667 6.7442 6.7442 3.24667 11.0586 3.24667C15.373 3.24667 18.8706 6.7442 18.8706 11.0586C18.8706 15.373 15.373 18.8706 11.0586 18.8706C6.7442 18.8706 3.24667 15.373 3.24667 11.0586Z" />
<path fill-rule="evenodd" clip-rule="evenodd" d="M15.5214 15.5214C15.8143 15.2285 16.2891 15.2285 16.582 15.5214L20.5337 19.473C20.8266 19.7659 20.8266 20.2408 20.5337 20.5337C20.2408 20.8266 19.7659 20.8266 19.473 20.5337L15.5214 16.582C15.2285 16.2891 15.2285 15.8143 15.5214 15.5214Z" />
</svg>
