<svg width="24" height="24" viewBox="0 0 24 24" fill="none" xmlns="http://www.w3.org/2000/svg">
<path fill-rule="evenodd" clip-rule="evenodd" d="M12.8003 2.99625C13.2224 2.99625 13.5991 3.26128 13.7417 3.65852L14.2499 5.07411C14.3306 5.29672 14.4872 5.48375 14.6921 5.60233L16.1998 6.47269C16.4045 6.59082 16.6444 6.63264 16.877 6.59074L18.3577 6.32363C18.7734 6.24803 19.1918 6.44183 19.4031 6.80783L20.2034 8.18841C20.4152 8.55342 20.3752 9.01208 20.1034 9.33489L19.132 10.4834C18.979 10.664 18.895 10.8929 18.8949 11.1296V12.8704C18.895 13.107 18.979 13.336 19.132 13.5166L20.1034 14.6651C20.3752 14.9879 20.4152 15.4466 20.2034 15.8116L19.4031 17.1922C19.192 17.5578 18.7741 17.7515 18.3587 17.6764L16.878 17.4092C16.6454 17.3674 16.4055 17.4092 16.2008 17.5273L14.6931 18.3977C14.4882 18.5162 14.3316 18.7033 14.2509 18.9259L13.7427 20.3415C13.5999 20.7391 13.2228 21.0041 12.8003 21.0037H11.1997C10.7776 21.0037 10.4009 20.7387 10.2583 20.3415L9.75007 18.9259C9.66942 18.7036 9.51328 18.5166 9.30888 18.3977L7.80025 17.5273C7.59553 17.4092 7.35559 17.3674 7.12297 17.4092L5.64235 17.6764C5.22659 17.752 4.80816 17.5582 4.59692 17.1922L3.79659 15.8116C3.58478 15.4466 3.62481 14.9879 3.89663 14.6651L4.86803 13.5166C5.02103 13.336 5.10504 13.107 5.10513 12.8704V11.1296C5.10504 10.8929 5.02103 10.664 4.86803 10.4834L3.90663 9.33489C3.63481 9.01208 3.59479 8.55342 3.80659 8.18841L4.60692 6.80783C4.81803 6.44222 5.23592 6.24849 5.65136 6.32363L7.13197 6.59074C7.36459 6.63264 7.60453 6.59082 7.80926 6.47269L9.31789 5.60233C9.52228 5.48338 9.67843 5.29643 9.75907 5.07411L10.2673 3.65852C10.4088 3.26436 10.7809 3.00008 11.1997 2.99625H12.8003Z" stroke="#0DB5B5" stroke-width="1.5" stroke-linecap="round" stroke-linejoin="round"/>
<circle cx="12" cy="12" r="2.75115" stroke="#0DB5B5" stroke-width="1.5" stroke-linecap="round" stroke-linejoin="round"/>
</svg>
