<svg viewBox="0 0 32 32" xmlns="http://www.w3.org/2000/svg">
<path fill-rule="evenodd" clip-rule="evenodd" d="M18.0806 5.72731C18.0806 5.72727 18.0806 5.72735 18.0806 5.72731L20.5445 10.7228L26.0548 11.524C26.0548 11.524 26.0548 11.524 26.0548 11.524C27.9588 11.8007 28.7167 14.1389 27.3402 15.4805L23.3511 19.3651L24.2924 24.8532C24.6171 26.7471 22.6297 28.1913 20.9284 27.2982L16 24.7081L11.0725 27.2978C9.36932 28.194 7.38319 26.7455 7.70764 24.8532L8.64895 19.3651L4.66013 15.4808C3.28293 14.1384 4.04353 11.8007 5.94513 11.524L11.4557 10.7228L13.9208 5.72731C13.9208 5.72741 13.9209 5.72722 13.9208 5.72731C14.7709 4.00363 17.2306 4.00352 18.0806 5.72731ZM16.4617 22.9172C16.3259 22.8364 16.168 22.7906 16.0014 22.7906H15.9987C15.8321 22.7906 15.6741 22.8364 15.5384 22.9172L10.2347 25.7046C9.85518 25.9043 9.4089 25.5825 9.48174 25.1575C9.48174 25.1575 9.48174 25.1574 9.48174 25.1575L10.5031 19.2028C10.5532 18.9107 10.4563 18.6126 10.2439 18.4059L5.91621 14.1915C5.60848 13.8911 5.77797 13.3673 6.2042 13.3053C6.20418 13.3053 6.20422 13.3053 6.2042 13.3053L12.1829 12.4359C12.476 12.3933 12.7294 12.2092 12.8604 11.9436L15.5351 6.52358C15.7251 6.13826 16.2762 6.13798 16.4661 6.5233L19.1395 11.9434C19.2706 12.2091 19.524 12.3933 19.8172 12.4359L25.7959 13.3053C26.2224 13.3673 26.3927 13.8904 26.0838 14.1915L21.7561 18.4059C21.5438 18.6126 21.4469 18.9107 21.497 19.2028L22.5183 25.1574C22.5183 25.1574 22.5183 25.1574 22.5183 25.1574C22.5909 25.5808 22.1464 25.9046 21.765 25.7044L16.4617 22.9172Z" />
</svg>
