<svg viewBox="0 0 32 32" xmlns="http://www.w3.org/2000/svg">
<path fill-rule="evenodd" clip-rule="evenodd" d="M9.43735 16.9C6.32252 16.9 3.79868 19.4249 3.79868 22.5386C3.79868 23.3911 3.98736 24.1978 4.32407 24.9218C4.40587 25.0977 4.42866 25.2953 4.38904 25.4851L3.82959 28.1662L6.5037 27.5983C6.69409 27.5578 6.89246 27.5802 7.06907 27.6621C7.76014 27.9823 8.52584 28.1678 9.33589 28.183C9.3692 28.1792 9.40305 28.1773 9.43735 28.1773C12.551 28.1773 15.076 25.6523 15.076 22.5386C15.076 19.4249 12.5522 16.9 9.43735 16.9ZM9.56223 29.9763C13.6124 29.9096 16.876 26.6047 16.876 22.5386C16.876 18.431 13.5465 15.1 9.43735 15.1C5.32817 15.1 1.99868 18.431 1.99868 22.5386C1.99868 23.5508 2.20143 24.5176 2.56813 25.3996L1.78565 29.1495C1.72353 29.4472 1.81598 29.7562 2.03142 29.9708C2.24686 30.1855 2.55616 30.2769 2.85366 30.2137L6.59476 29.4191C7.47314 29.7828 8.43534 29.984 9.44401 29.984C9.48408 29.984 9.52354 29.9814 9.56223 29.9763Z" />
<path fill-rule="evenodd" clip-rule="evenodd" d="M18.6667 3.56666C13.205 3.56666 8.90004 7.54601 8.90004 12.32C8.90004 13.5007 9.1616 14.6222 9.63379 15.6495C9.84138 16.1011 9.64355 16.6355 9.19191 16.8431C8.74028 17.0507 8.20588 16.8528 7.99829 16.4012C7.42247 15.1485 7.10004 13.7713 7.10004 12.32C7.10004 6.38199 12.3898 1.76666 18.6667 1.76666C24.9437 1.76666 30.2334 6.38199 30.2334 12.32C30.2334 15.6542 28.5437 18.5788 25.9684 20.4931C25.9685 20.9701 25.9681 21.505 25.9676 22.0743C25.9672 22.6315 25.9667 23.2217 25.9667 23.8227C25.9667 24.1336 25.8062 24.4226 25.5422 24.5868C25.2781 24.7511 24.948 24.7674 24.6691 24.6301L20.7491 22.6994C20.0736 22.8124 19.3782 22.8733 18.6667 22.8733C17.6406 22.8733 16.6539 22.7405 15.7152 22.5151C15.2319 22.3991 14.9342 21.9132 15.0502 21.4299C15.1663 20.9465 15.6522 20.6488 16.1355 20.7649C16.9515 20.9608 17.7968 21.0733 18.6667 21.0733C19.3661 21.0733 20.0494 21.0045 20.7118 20.8774C20.9042 20.8405 21.1033 20.8674 21.279 20.9539L24.1674 22.3765C24.1675 22.273 24.1675 22.1705 24.1676 22.0691C24.1682 21.3089 24.1688 20.612 24.168 20.0305C24.1676 19.7322 24.3151 19.4531 24.5617 19.2852C26.9314 17.6728 28.4334 15.1493 28.4334 12.32C28.4334 7.54601 24.1284 3.56666 18.6667 3.56666Z" />
<path fill-rule="evenodd" clip-rule="evenodd" d="M5.66313 21.9831C6.04064 21.6056 6.6527 21.6056 7.03021 21.9831C7.40771 22.3606 7.40771 22.9726 7.03021 23.3502C6.6527 23.7277 6.04064 23.7277 5.66313 23.3502C5.28563 22.9726 5.28563 22.3606 5.66313 21.9831Z" />
<path fill-rule="evenodd" clip-rule="evenodd" d="M8.66313 21.9831C9.04064 21.6056 9.6527 21.6056 10.0302 21.9831C10.4077 22.3606 10.4077 22.9726 10.0302 23.3502C9.6527 23.7277 9.04064 23.7277 8.66313 23.3502C8.28563 22.9726 8.28563 22.3606 8.66313 21.9831Z" />
<path fill-rule="evenodd" clip-rule="evenodd" d="M11.6631 21.9831C12.0406 21.6056 12.6527 21.6056 13.0302 21.9831C13.4077 22.3606 13.4077 22.9726 13.0302 23.3502C12.6527 23.7277 12.0406 23.7277 11.6631 23.3502C11.2856 22.9726 11.2856 22.3606 11.6631 21.9831Z" />
</svg>
