<svg viewBox="0 0 32 32" xmlns="http://www.w3.org/2000/svg">
<path fill-rule="evenodd" clip-rule="evenodd" d="M10.6645 7.58946C8.59048 7.58946 6.90919 9.27075 6.90919 11.3447C6.90919 13.4187 8.59048 15.1 10.6645 15.1C12.7384 15.1 14.4197 13.4187 14.4197 11.3447C14.4197 9.27075 12.7384 7.58946 10.6645 7.58946ZM5.10919 11.3447C5.10919 8.27664 7.59637 5.78946 10.6645 5.78946C13.7326 5.78946 16.2197 8.27664 16.2197 11.3447C16.2197 14.4128 13.7326 16.9 10.6645 16.9C7.59637 16.9 5.10919 14.4128 5.10919 11.3447Z" />
<path fill-rule="evenodd" clip-rule="evenodd" d="M22.6694 10.2306C21.3248 10.2306 20.2347 11.3206 20.2347 12.6653C20.2347 14.01 21.3248 15.1 22.6694 15.1C24.0141 15.1 25.1041 14.01 25.1041 12.6653C25.1041 11.3206 24.0141 10.2306 22.6694 10.2306ZM18.4347 12.6653C18.4347 10.3265 20.3306 8.43057 22.6694 8.43057C25.0082 8.43057 26.9041 10.3265 26.9041 12.6653C26.9041 15.0041 25.0082 16.9 22.6694 16.9C20.3306 16.9 18.4347 15.0041 18.4347 12.6653Z" />
<path fill-rule="evenodd" clip-rule="evenodd" d="M7.97399 20.9017C5.53649 20.9017 3.56111 22.8771 3.56111 25.3146V26.6711C3.56111 27.1682 3.15816 27.5711 2.66111 27.5711C2.16405 27.5711 1.76111 27.1682 1.76111 26.6711V25.3146C1.76111 21.883 4.54238 19.1017 7.97399 19.1017H13.3549C16.7865 19.1017 19.5678 21.883 19.5678 25.3146V26.6711C19.5678 27.1682 19.1648 27.5711 18.6678 27.5711C18.1707 27.5711 17.7678 27.1682 17.7678 26.6711V25.3146C17.7678 22.8771 15.7924 20.9017 13.3549 20.9017H7.97399Z" />
<path fill-rule="evenodd" clip-rule="evenodd" d="M21.7695 20.0017C21.7695 19.5046 22.1724 19.1017 22.6695 19.1017H24.1394C27.571 19.1017 30.3523 21.883 30.3523 25.3146V26.6711C30.3523 27.1682 29.9494 27.5711 29.4523 27.5711C28.9552 27.5711 28.5523 27.1682 28.5523 26.6711V25.3146C28.5523 22.8771 26.5769 20.9017 24.1394 20.9017H22.6695C22.1724 20.9017 21.7695 20.4987 21.7695 20.0017Z" />
</svg>
