<svg viewBox="0 0 32 32" xmlns="http://www.w3.org/2000/svg">
<path fill-rule="evenodd" clip-rule="evenodd" d="M18.6635 6.6699C17.1925 5.19892 14.8076 5.19892 13.3366 6.6699C11.8656 8.14088 11.8656 10.5258 13.3366 11.9968C14.8076 13.4678 17.1925 13.4678 18.6635 11.9968C20.1344 10.5258 20.1344 8.14088 18.6635 6.6699ZM19.9363 5.39711C17.7623 3.22318 14.2377 3.22318 12.0638 5.39711C9.88987 7.57103 9.88987 11.0956 12.0638 13.2696C14.2377 15.4435 17.7623 15.4435 19.9363 13.2696C22.1102 11.0956 22.1102 7.57103 19.9363 5.39711Z" />
<path fill-rule="evenodd" clip-rule="evenodd" d="M8.18988 19.0479C10.342 17.795 13.1707 17.1107 16 17.1107C18.8293 17.1107 21.658 17.795 23.8102 19.0479C25.9542 20.296 27.5667 22.2068 27.5667 24.6667V26C27.5667 27.233 26.5664 28.2333 25.3333 28.2333H6.66668C5.43363 28.2333 4.43335 27.233 4.43335 26V24.6667C4.43335 22.2068 6.04585 20.296 8.18988 19.0479ZM9.09549 20.6035C7.25551 21.6746 6.23335 23.0918 6.23335 24.6667V26C6.23335 26.2389 6.42774 26.4333 6.66668 26.4333H25.3333C25.5723 26.4333 25.7667 26.2389 25.7667 26V24.6667C25.7667 23.0918 24.7445 21.6746 22.9045 20.6035C21.0727 19.537 18.568 18.9107 16 18.9107C13.432 18.9107 10.9274 19.537 9.09549 20.6035Z" />
</svg>
