<svg viewBox="0 0 32 32" xmlns="http://www.w3.org/2000/svg">
<path fill-rule="evenodd" clip-rule="evenodd" d="M20.4333 17.892C20.4333 16.3496 21.6829 15.1 23.2253 15.1H28C28.497 15.1 28.9 15.5029 28.9 16C28.9 16.4971 28.497 16.9 28 16.9H23.2253C22.677 16.9 22.2333 17.3437 22.2333 17.892V19.4413C22.2333 19.9896 22.677 20.4333 23.2253 20.4333H28C28.497 20.4333 28.9 20.8363 28.9 21.3333C28.9 21.8304 28.497 22.2333 28 22.2333H23.2253C21.6829 22.2333 20.4333 20.9837 20.4333 19.4413V17.892Z" />
<path fill-rule="evenodd" clip-rule="evenodd" d="M6.66664 10.2333C5.69037 10.2333 4.89998 11.0237 4.89998 12V25.3333C4.89998 26.3096 5.69037 27.1 6.66664 27.1H25.3333C26.3096 27.1 27.1 26.3096 27.1 25.3333V12C27.1 11.0237 26.3096 10.2333 25.3333 10.2333H6.66664ZM3.09998 12C3.09998 10.0296 4.69625 8.43335 6.66664 8.43335H25.3333C27.3037 8.43335 28.9 10.0296 28.9 12V25.3333C28.9 27.3037 27.3037 28.9 25.3333 28.9H6.66664C4.69625 28.9 3.09998 27.3037 3.09998 25.3333V12Z" />
<path fill-rule="evenodd" clip-rule="evenodd" d="M11.7538 4.3067C12.626 3.43275 14.0401 3.43405 14.9124 4.30628L19.303 8.69694C19.6545 9.04841 19.6545 9.61826 19.303 9.96974C18.9516 10.3212 18.3817 10.3212 18.0302 9.96974L13.6396 5.57907C13.4693 5.40876 13.1957 5.40993 13.0279 5.57825L8.63637 9.96974C8.2849 10.3212 7.71505 10.3212 7.36358 9.96974C7.01211 9.61826 7.01211 9.04841 7.36358 8.69694L11.7538 4.3067C11.754 4.30657 11.7537 4.30683 11.7538 4.3067Z" />
<path fill-rule="evenodd" clip-rule="evenodd" d="M18.9721 5.57825C18.8042 5.40993 18.5307 5.40876 18.3604 5.57907L16.6364 7.30307C16.2849 7.65454 15.7151 7.65454 15.3636 7.30307C15.0121 6.9516 15.0121 6.38175 15.3636 6.03028L17.0876 4.30628C17.9598 3.43405 19.374 3.43275 20.2461 4.3067C20.246 4.30657 20.2463 4.30683 20.2461 4.3067L24.6364 8.69694C24.9878 9.04841 24.9878 9.61826 24.6364 9.96974C24.2849 10.3212 23.7151 10.3212 23.3636 9.96974L18.9721 5.57825Z" />
</svg>
